rec1_001.mot
nRows=12
nColumns=19

name rec1_001.mot
datacolumns 19
datarows 12
range 10.0040779336 10.0260783420
endheader
time	ground_force_vx	ground_force_vy	ground_force_vz	ground_force_px	ground_force_py	ground_force_pz	1_ground_force_vx	1_ground_force_vy	1_ground_force_vz	1_ground_force_px	1_ground_force_py	1_ground_force_pz	ground_torque_x	ground_torque_y	ground_torque_z	1_ground_torque_x	1_ground_torque_y	1_ground_torque_z	
       10.0040779336	      -19.4135648822	      566.2352695522	      -43.5658256852	       -0.7000000000	       -0.0180000000	        0.5600000000	        0.0500693560	        3.6273011763	        0.3575200363	       -0.7000000000	       -0.0180000000	       -0.5600000000	      263.0870436106	       25.6853988625	      564.8657386490	       -0.3119039625	        0.5723442690	        0.8466258402	
       10.0060784289	      -18.1068146256	      563.5369414567	      -42.6908957863	       -0.7000000000	       -0.0180000000	        0.5600000000	        0.0344637702	        3.6410057521	        0.3482510581	       -0.7000000000	       -0.0180000000	       -0.5600000000	      261.8565312890	       24.6470027106	      560.8487780634	       -0.3071079967	        0.5799677837	        1.0024041501	
       10.0080779242	      -16.7882248792	      560.9598574754	      -41.8767300502	       -0.7000000000	       -0.0180000000	        0.5600000000	        0.0176633432	        3.6476904734	        0.3402066552	       -0.7000000000	       -0.0180000000	       -0.5600000000	      260.6832708942	       23.6547160708	      556.9577379703	       -0.3007305792	        0.5879069820	        1.1571531945	
       10.0100782596	      -15.4583907078	      558.4983174597	      -41.1310001414	       -0.7000000000	       -0.0180000000	        0.5600000000	       -0.0017430798	        3.6469265722	        0.3365250386	       -0.7000000000	       -0.0180000000	       -0.5600000000	      259.5643645618	       22.7161192851	      553.1849938209	       -0.2929631676	        0.5915605027	        1.3068062590	
       10.0120779949	      -14.1179797802	      556.1474796134	      -40.4604582380	       -0.7000000000	       -0.0180000000	        0.5600000000	       -0.0256878088	        3.6377347608	        0.3400065678	       -0.7000000000	       -0.0180000000	       -0.5600000000	      258.4973755400	       21.8373431487	      549.5237182918	       -0.2838921162	        0.5866597199	        1.4461413614	
       10.0140783301	      -12.7681184818	      553.9042247746	      -39.8709927142	       -0.7000000000	       -0.0180000000	        0.5600000000	       -0.0552764168	        3.6192037071	        0.3525450407	       -0.7000000000	       -0.0180000000	       -0.5600000000	      257.4806280886	       21.0232560251	      545.9695256942	       -0.2735904170	        0.5704405097	        1.5699872074	
       10.0160780254	      -11.4107970096	      551.7671682782	      -39.3674865290	       -0.7000000000	       -0.0180000000	        0.5600000000	       -0.0898776674	        3.5911415153	        0.3746269694	       -0.7000000000	       -0.0180000000	       -0.5600000000	      256.5132332552	       20.2778993585	      542.5207023068	       -0.2622125106	        0.5424832233	        1.6744646164	
       10.0180783207	      -10.0491103684	      549.7361276113	      -38.9533396607	       -0.7000000000	       -0.0180000000	        0.5600000000	       -0.1271890652	        3.5543262545	        0.4050953161	       -0.7000000000	       -0.0180000000	       -0.5600000000	      255.5949266742	       19.6045864637	      539.1772096646	       -0.2500425007	        0.5048482355	        1.7574608884	
       10.0200780561	       -8.6871110933	      547.8116060153	      -38.6298045128	       -0.7000000000	       -0.0180000000	        0.5600000000	       -0.1642414922	        3.5101468314	        0.4412644999	       -0.7000000000	       -0.0180000000	       -0.5600000000	      254.7258744567	       19.0051737915	      535.9395146870	       -0.2374102063	        0.4615070891	        1.8180842221	
       10.0220783514	       -7.3292989127	      545.9947394478	      -38.3954657454	       -0.7000000000	       -0.0180000000	        0.5600000000	       -0.1987431958	        3.4599096197	        0.4794494228	       -0.7000000000	       -0.0180000000	       -0.5600000000	      253.9065816185	       18.4791538065	      532.8082961737	       -0.2245490695	        0.4172431359	        1.8556312658	
       10.0240781268	       -5.9800267440	      544.2877599211	      -38.2462137833	       -0.7000000000	       -0.0180000000	        0.5600000000	       -0.2300023870	        3.4044270321	        0.5158033111	       -0.7000000000	       -0.0180000000	       -0.5600000000	      253.1379753221	       18.0232279197	      529.7853015829	       -0.2115799513	        0.3763885930	        1.8690436333	
       10.0260783420	       -4.6432248937	      542.6943720205	      -38.1757767715	       -0.7000000000	       -0.0180000000	        0.5600000000	       -0.2589299954	        3.3441973223	        0.5470946053	       -0.7000000000	       -0.0180000000	       -0.5600000000	      252.4215278042	       17.6316881846	      526.8743681754	       -0.1986255742	        0.3419700164	        1.8573383474	
